<?xml version="1.0" encoding="UTF-8" standalone="no"?>
<svg
   viewBox="0 0 714 714"
   width="714"
   height="714"
   version="1.1"
   id="svg12"
   xml:space="preserve"
   sodipodi:docname="logo_wirefinder.svg"
   inkscape:export-filename="logo_wirefinder.svg"
   inkscape:export-xdpi="96"
   inkscape:export-ydpi="96"
   inkscape:version="1.4.3 (0d15f75042, 2025-12-25)"
   xmlns:inkscape="http://www.inkscape.org/namespaces/inkscape"
   xmlns:sodipodi="http://sodipodi.sourceforge.net/DTD/sodipodi-0.dtd"
   xmlns:xlink="http://www.w3.org/1999/xlink"
   xmlns="http://www.w3.org/2000/svg"
   xmlns:svg="http://www.w3.org/2000/svg"><sodipodi:namedview
     id="namedview1"
     pagecolor="#ffffff"
     bordercolor="#000000"
     borderopacity="0.25"
     inkscape:showpageshadow="2"
     inkscape:pageopacity="0.0"
     inkscape:pagecheckerboard="0"
     inkscape:deskcolor="#d1d1d1"
     inkscape:zoom="1.0308123"
     inkscape:cx="467.59239"
     inkscape:cy="337.59783"
     inkscape:window-width="1920"
     inkscape:window-height="944"
     inkscape:window-x="0"
     inkscape:window-y="0"
     inkscape:window-maximized="1"
     inkscape:current-layer="svg12" /><defs
     id="defs12"><linearGradient
       id="linearGradient34"><stop
         style="stop-color:#f9f9f9;stop-opacity:1;"
         offset="0"
         id="stop33" /><stop
         style="stop-color:#f9f9f9;stop-opacity:0;"
         offset="1"
         id="stop34" /></linearGradient><linearGradient
       id="linearGradient31"><stop
         style="stop-color:#f9f9f9;stop-opacity:1;"
         offset="0"
         id="stop31" /><stop
         style="stop-color:#f9f9f9;stop-opacity:0;"
         offset="1"
         id="stop32" /></linearGradient><linearGradient
       id="swatch29"><stop
         style="stop-color:#f5f7f8;stop-opacity:1;"
         offset="0"
         id="stop29" /></linearGradient><radialGradient
       xlink:href="#linearGradient31"
       id="radialGradient32"
       cx="649.44293"
       cy="551.88824"
       fx="649.44293"
       fy="551.88824"
       r="49.898102"
       gradientTransform="matrix(-5.329071,0.02831215,-0.02866515,-5.3935292,3618.1904,3248.0168)"
       gradientUnits="userSpaceOnUse" /><radialGradient
       xlink:href="#linearGradient34"
       id="radialGradient32-7"
       cx="649.04675"
       cy="563.84338"
       fx="649.04675"
       fy="563.84338"
       r="49.898102"
       gradientTransform="matrix(-7.0212173,-2.4522185,0.92315775,-1.8149829,4343.284,3016.2118)"
       gradientUnits="userSpaceOnUse" /><radialGradient
       xlink:href="#linearGradient31"
       id="radialGradient32-7-6"
       cx="652.44513"
       cy="528.2431"
       fx="652.44513"
       fy="528.2431"
       r="49.898102"
       gradientTransform="matrix(-3.1992723,6.6916092,-1.4451195,-0.90353725,3327.1252,-3419.4785)"
       gradientUnits="userSpaceOnUse" /><radialGradient
       xlink:href="#linearGradient34"
       id="radialGradient32-7-6-9"
       cx="648.89478"
       cy="553.05658"
       fx="648.89478"
       fy="553.05658"
       r="49.898102"
       gradientTransform="matrix(-7.4867003,0.08865557,0.44368553,-2.658177,5252.1859,1766.7758)"
       gradientUnits="userSpaceOnUse" /></defs><!-- background --><!-- globe --><ellipse
     style="fill:#2b2c4a;fill-opacity:1"
     id="path35"
     cx="356.16907"
     cy="358.67352"
     rx="347.40463"
     ry="346.319" /><g
     id="g4"
     style="display:inline;fill:#9aa3b8;fill-opacity:1"
     transform="translate(-507.99999,-232.99999)"><!-- globe disc clip --><defs
       id="defs1" /><!-- continents (gray-blue landmasses) clipped to the globe disc --><!-- globe ring --><path
       style="fill:#9aa3b8;fill-opacity:1"
       d="m 603.38315,805.27853 c 2.30299,-0.25588 4.67634,-0.14749 6.90897,-0.76766 6.15792,-1.71053 6.87886,-3.61956 12.28261,-6.1413 1.98119,-0.92456 4.16011,-1.37844 6.1413,-2.30299 1.86949,-0.87243 3.50416,-2.19823 5.37364,-3.07066 3.57352,-1.66763 9.67189,-4.08772 13.81794,-4.60597 1.26956,-0.1587 2.56523,0.1273 3.83831,0 6.91005,-0.69101 0.92523,-0.68051 6.90897,-1.53533 0.75995,-0.10856 1.55825,0.18619 2.30299,0 0.35108,-0.0878 0.44399,-0.60583 0.76766,-0.76766 0.45775,-0.22888 1.17345,0.36188 1.53533,0 0.18094,-0.18094 -0.18094,-0.58673 0,-0.76767 0.935,-0.935 1.71512,-0.35959 2.30299,-1.53532 1.44684,-2.89368 -6.31937,3.82723 2.30299,-3.07065 0.8936,-0.71488 2.26146,-0.72614 3.07065,-1.53533 1.52981,-1.52981 2.73439,-4.48542 3.83832,-6.1413 1.40019,-2.10029 2.9138,-1.37848 3.83831,-2.30299 1.58832,-1.58833 -2.42717,0.0621 0.76766,-1.53533 0.22888,-0.11444 0.58673,0.18094 0.76767,0 1.11735,-1.11735 0.0668,-3.13744 0.76766,-3.83832 1.05243,-1.05242 6.71871,0.60802 7.67663,0.76767 6.05279,1.0088 13.89786,1.19146 19.19158,3.83831 2.45652,1.22826 6.75543,-1.22826 9.21195,0 3.13741,1.56871 5.52989,2.70245 9.21196,3.07066 1.05343,0.10534 12.28697,1.27653 13.05027,0.76766 0.60221,-0.40147 0.86333,-1.26653 1.53533,-1.53533 0.71275,-0.2851 1.54577,0.12621 2.30299,0 3.48393,-0.58065 6.58641,-3.15967 9.97962,-3.83831 0.75275,-0.15055 1.54304,0.10856 2.30299,0 4.3343,-0.61919 9.31345,-3.42911 13.81793,-2.30299 5.45077,1.36269 10.42269,5.48595 15.35326,8.44429 0.31031,0.18619 0.42435,0.65323 0.76766,0.76766 5.8597,1.95324 -3.91859,-3.12416 3.07066,1.53533 0.70762,0.47175 2.23514,-0.2785 3.07065,0 3.90665,1.30222 7.13328,1.26644 11.51494,3.07065 1.90764,0.7855 3.50416,2.19823 5.37365,3.07065 14.70816,6.86381 32.83895,16.8412 49.89809,13.05028 6.38482,-1.41885 20.28919,-5.4403 25.33288,-9.97962 2.97102,-2.67392 4.9757,-6.26549 7.67663,-9.21196 -1.71654,-4.27542 4.86187,-3.32654 6.14131,-4.60598 1.05505,-1.05505 1.43574,-2.62417 2.30299,-3.83831 2.01147,-2.81607 4.20557,-5.54069 6.1413,-8.4443 1.15129,-1.72692 8.49104,-7.32786 9.97962,-8.44429 0.73809,-0.55357 1.47778,-1.12272 2.30299,-1.53533 0.22887,-0.11443 0.58672,0.18094 0.76766,0 0.18094,-0.18094 -0.18094,-0.58672 0,-0.76766 0.18094,-0.18094 0.52491,0.0809 0.76767,0 5.31636,-1.77212 10.14652,2.10274 15.35326,3.83832 1.01958,0.33986 9.08402,1.40739 9.21195,1.53532 0.18094,0.18094 -0.18094,0.58673 0,0.76767 0.0278,0.0278 35.69236,-1.41662 41.45381,-2.30299 0.3333,-0.0513 7.56235,-2.84209 8.44429,-4.60598 0.11444,-0.22888 -0.18094,-0.58673 0,-0.76767 0.18094,-0.18094 0.53008,0.095 0.76766,0 1.06252,-0.425 2.11849,-0.90054 3.07066,-1.53532 1.50551,-1.00368 2.67994,-2.4483 3.83834,-3.83832 1.7227,-2.06731 2.7061,-5.0091 4.606,-6.90896 0.9047,-0.9047 2.3269,-1.26187 3.0706,-2.30299 0.6132,-0.85853 0.2958,-2.12699 0.7677,-3.07066 0.8954,-1.79094 2.9285,-3.55402 3.8383,-5.37364 0.1144,-0.22887 -0.181,-0.58672 0,-0.76766 0.8844,-0.88446 6.3642,1.35374 6.9089,1.53533 6.8896,2.29653 13.2363,5.75511 19.9593,8.44429 2.7624,1.10496 4.7332,1.2151 6.909,2.30299 2.7189,1.35946 8.8702,-0.57875 11.5149,-0.76766 2.5524,-0.18232 5.1674,0.50183 7.6766,0 3.7862,-0.75723 7.5325,-2.40692 11.515,-3.07066 3.5434,-0.59056 18.9256,-0.25083 19.9592,-0.76766 0.3237,-0.16184 0.4166,-0.67989 0.7677,-0.76766 1.6419,-0.41048 7.6758,-0.65833 9.2119,0 1.176,0.50399 1.9385,1.70709 3.0707,2.30299 3.7482,1.97276 7.8036,3.33238 11.5149,5.37364 1.4357,0.78961 2.3999,2.28606 3.8383,3.07065 1.4208,0.77496 3.0499,1.09072 4.606,1.53533 0.2461,0.0703 0.5867,-0.18094 0.7677,0 0.1809,0.18094 -0.181,0.58672 0,0.76766 0.3838,0.38383 1.1515,0.38383 1.5353,0.76766 0.181,0.18094 0,0.51178 0,0.76767 0.2559,0.25588 0.4666,0.56692 0.7677,0.76766 1.5812,1.05418 3.5668,2.10633 4.606,3.83831 0.4163,0.69388 0.1358,1.7975 0.7676,2.30299 0.4083,0.32664 4.5572,1.48654 5.3737,2.30299 0.3618,0.36188 -0.3619,1.17345 0,1.53533 0.1809,0.18094 0.6532,-0.22887 0.7676,0 0.2289,0.45774 -0.1618,1.04981 0,1.53532 0.2289,0.68662 1.2117,0.88798 1.5354,1.53533 0.2317,0.4635 -0.3549,1.94813 0,2.30299 1.5883,1.58832 -0.062,-2.42717 1.5353,0.76766 0.2288,0.45775 -0.2289,1.07758 0,1.53533 0.4606,0.92119 1.8424,1.38179 2.303,2.30299 0.1144,0.22887 -0.181,0.58672 0,0.76766 0.1809,0.18094 0.5867,-0.18094 0.7676,0 0.3619,0.36188 -0.2288,1.07758 0,1.53533 0.1619,0.32367 0.6059,0.44398 0.7677,0.76766 1.031,2.06211 -2.2706,3.69159 -3.0707,4.60598 -2.9675,3.39144 -2.8952,5.02274 -4.6059,8.44429 -1.2324,2.46469 -3.1041,4.65608 -4.606,6.90897 -1.6996,2.54934 -2.1289,5.61894 -3.0707,8.44429 -1.8535,5.56051 0.2214,-1.2103 -1.5353,2.30299 -1.9315,3.863 -2.4374,8.48763 -4.606,12.28261 -3.9698,6.94723 0.7168,-2.74698 -3.0706,2.30299 -0.4855,0.64735 -0.4058,1.57923 -0.7677,2.30299 -1.4224,2.8448 -4.2659,5.17604 -6.1413,7.67663 -0.1535,0.20471 0.1809,0.58672 0,0.76766 -0.746,0.74604 -2.127,0.29583 -3.0706,0.76767 -1.9072,0.95358 -3.5392,2.92109 -5.3737,3.83831 -1.1909,0.59546 -3.6055,0.26742 -4.606,0.76766 -0.971,0.48552 -1.3996,1.70079 -2.303,2.30299 -0.6732,0.44886 -1.6091,0.35134 -2.3029,0.76767 -2.3325,1.39949 -3.554,4.11945 -5.3737,6.1413 -4.5496,5.05517 -8.5818,9.59651 -12.2826,15.35326 -0.9978,1.55217 -2.0471,3.07065 -3.0706,4.60598 -0.5118,0.76766 -1.1228,1.47778 -1.5354,2.30299 -0.1144,0.22887 0.181,0.58672 0,0.76766 -2.794,2.794 -0.5394,-0.81614 -2.303,1.53533 -1.3108,1.74775 -1.8557,3.36686 -3.8383,4.60598 -1.1685,0.73033 -2.6698,0.80498 -3.8383,1.53532 -2.455,1.53437 -3.8561,4.36392 -6.1413,6.14131 -0.9033,0.70257 -2.1394,0.87017 -3.0706,1.53532 -3.9313,2.80807 -1.1085,1.32188 -4.606,3.07065 -1.7671,0.88355 0.3347,0.90049 -1.5354,2.30299 -0.9808,0.73564 -7.3389,3.39619 -8.4442,3.83832 -0.4752,0.19007 -1.1095,-0.28388 -1.5354,0 -0.6022,0.40147 -0.8879,1.21165 -1.5353,1.53532 -0.4577,0.22888 -1.0776,-0.22887 -1.5353,0 -0.6474,0.32368 -0.888,1.21166 -1.5353,1.53533 -0.4578,0.22887 -1.0499,-0.16184 -1.5354,0 -0.3433,0.11444 -0.4316,0.63327 -0.7676,0.76766 -1.9592,0.78368 -4.1395,0.86806 -6.1413,1.53533 -6.9898,2.32993 -0.9129,0.41195 -6.909,3.83832 -1.0269,0.5868 -4.694,0.85567 -5.3737,1.53532 -0.1809,0.18094 0.213,0.62572 0,0.76766 -1.5571,1.03813 -7.4283,2.47613 -9.2119,3.07066 -17.44829,5.81609 6.5086,-2.40317 -10.7473,2.30299 -1.10403,0.3011 -1.985,1.17344 -3.07064,1.53532 -0.97103,0.32368 -2.06103,-0.16827 -3.07066,0 -3.76389,0.62732 -7.80479,1.4468 -11.51494,2.30299 -2.84285,0.65604 -5.54926,1.94111 -8.44429,2.30299 -2.75843,0.3448 -5.72773,0.22435 -8.4443,0.76766 -10.80235,2.16047 -5.52988,2.28726 -15.35326,3.83832 -2.54017,0.40108 -5.16015,0.23788 -7.67663,0.76766 -2.37549,0.5001 -4.53921,1.77638 -6.90897,2.30299 -20.90461,4.64547 4.90941,-2.43206 -12.28261,1.53533 -3.47256,0.80136 -4.42733,1.8388 -7.67663,2.30299 -0.75994,0.10856 -1.55023,-0.15056 -2.30298,0 -1.05766,0.21153 -3.16009,2.01231 -3.83832,2.30298 -1.93682,0.83007 -5.93041,1.05909 -7.67663,1.53533 -9.49311,2.58903 2.27587,0.77154 -8.44429,2.30299 -1.5199,0.21713 -3.08005,-0.16955 -4.60598,0 -1.0486,0.11651 -2.03609,0.56075 -3.07065,0.76766 -1.83706,0.36741 -4.28772,0 -6.14131,0 -5.37364,0 -10.74728,0 -16.12092,0 -2.20312,0 -12.14511,0.60345 -13.05027,0 -0.60221,-0.40147 -0.83942,-1.33649 -1.53533,-1.53532 -0.80605,-0.2303 -5.80353,0.18424 -6.90897,0 -0.56439,-0.0941 -0.98023,-0.62889 -1.53532,-0.76767 -3.27001,-0.8175 -8.1401,-0.90254 -11.51495,-1.53532 -4.88334,-0.91563 -9.74923,-1.93269 -14.5856,-3.07065 -1.81337,-0.42668 -3.53241,-1.25206 -5.37364,-1.53533 -1.53532,0 -3.07065,0 -4.60598,0 -0.25588,-0.25589 -0.42435,-0.65323 -0.76766,-0.76766 -1.46793,-0.48931 -2.43581,0.61183 -3.83832,0.76766 -3.30619,0.36735 -6.66153,0.23701 -9.97961,0 -17.2434,-1.23167 4.02859,-0.21127 -9.21196,-1.53533 -4.39601,-0.4396 -8.64551,-0.65437 -13.05027,-1.53532 -2.31336,-0.46267 -4.56151,-1.30058 -6.90897,-1.53533 -2.8008,-0.28008 -5.62953,0 -8.44429,0 -0.51178,0 -1.07758,0.22887 -1.53533,0 -2.75157,-1.37578 -6.16981,-1.92984 -9.21196,-3.07065 -12.31537,-4.61827 6.90132,1.9584 -6.1413,-3.83832 -1.19232,-0.52992 -2.70545,-0.12031 -3.83832,-0.76766 -0.80105,-0.45774 -0.88293,-1.6506 -1.53532,-2.30299 -1.8662,-1.86619 -5.37699,-1.92083 -7.67663,-3.07065 -1.33455,-0.66727 -2.47485,-1.697 -3.83832,-2.30299 -1.27109,-1.9065 -3.12935,-0.27545 -4.60598,-0.76766 -1.84877,-0.61626 -3.6701,-1.35658 -5.37364,-2.30299 -4.96115,-2.7562 -9.20755,-5.60815 -14.5856,-7.67663 -2.04057,-0.78484 -4.59535,-0.75704 -6.1413,-2.30299 -0.65239,-0.65239 -0.88294,-1.6506 -1.53533,-2.30299 -1.97482,-1.97482 -5.44082,-3.1832 -7.67663,-4.60598 -3.91426,-2.49089 -6.39762,-6.34636 -9.97962,-9.21196 -1.84437,-1.4755 -3.54363,-1.69815 -5.37364,-3.07065 -0.86851,-0.65138 -1.39968,-1.70078 -2.30299,-2.30299 -4.71075,-3.1405 -9.48184,-6.26296 -13.81793,-9.97962 -2.1453,-1.83882 -3.09887,-4.37203 -5.37364,-6.1413 -1.45654,-1.13286 -3.3012,-1.76588 -4.60598,-3.07065 -2.24559,-2.2456 -2.82541,-5.76546 -5.37364,-7.67663 -0.91549,-0.68662 -2.19153,-0.80272 -3.07065,-1.53533 -1.11202,-0.92668 -1.91264,-2.20214 -3.07066,-3.07065 -2.10141,-1.05071 -3.56522,-1.62392 -5.37364,-3.07065 -0.56516,-0.45213 -0.9147,-1.16296 -1.53532,-1.53533 -0.69388,-0.41632 -1.60912,-0.35134 -2.30299,-0.76766 -3.11857,-1.87115 -5.38506,-4.94232 -8.4443,-6.90897 -1.15914,-0.74516 -2.60579,-0.91907 -3.83831,-1.53533 -1.21534,-0.60766 -1.93497,-2.31353 -3.07065,-3.07065 -0.70125,-0.4675 -1.86296,-0.65526 -2.30299,-1.53532 -0.2382,-0.4764 0,-2.72918 0,-3.07066 0,-0.57218 -1.04554,-1.03515 -0.76767,-1.53532 1.2427,-2.23686 3.07066,-4.09421 4.60598,-6.14131 z"
       id="path21" /><path
       style="fill:#9aa3b8;fill-opacity:1"
       d="m 814.49049,479.7894 c -9.116,2.43358 -18.84049,4.63524 -28.40353,3.83832 -1.53533,-0.25589 -3.07066,-0.51178 -4.60598,-0.76767 -0.25589,-0.25588 -0.42436,-0.65322 -0.76766,-0.76766 -0.97103,-0.32367 -2.09963,0.32368 -3.07066,0 -1.23737,-0.41246 -1.88642,-2.47853 -3.07065,-3.07065 -0.45774,-0.22887 -1.04981,0.16184 -1.53532,0 -2.04822,-0.68274 -2.27244,-1.83628 -4.60598,-2.30299 -6.38114,-1.27623 -14.87303,0.90691 -19.95924,4.60598 -1.03473,0.75253 -1.39829,2.16595 -2.30299,3.07065 -0.65239,0.65239 -1.74942,0.79723 -2.30299,1.53533 -1.37324,1.83098 -2.34689,3.97002 -3.07065,6.1413 -0.4053,1.21588 3.39711,6.90009 3.83831,8.44429 0.32702,1.14456 0.24617,2.79534 0.76767,3.83832 0.32367,0.64735 1.30645,0.84871 1.53532,1.53533 0.22157,0.66469 1.49854,11.27582 1.53533,11.51494 0.3968,2.57921 1.27566,5.08003 1.53532,7.67663 0.60121,6.01206 -1.91844,11.89521 -3.07065,17.65625 -0.70708,3.5354 -0.64606,8.96875 -2.30299,12.28261 -1.50959,3.01919 -1.65981,1.39008 -2.30299,4.60598 -0.29585,1.47928 -0.28739,3.16517 -0.76766,4.60598 -0.28105,0.84315 -2.71813,5.78878 -3.07065,6.1413 -0.18094,0.18094 -0.58672,-0.18094 -0.76766,0 -0.74604,0.74604 -0.29583,2.12699 -0.76767,3.07065 -0.4126,0.82522 -1.12272,1.47778 -1.53532,2.30299 -1.24249,2.48497 2.52916,4.32632 3.83831,5.37364 1.28037,1.0243 3.92297,4.00764 4.60598,5.37365 0.47183,0.94366 0.15443,2.21212 0.76766,3.07065 0.74366,1.04112 2.327,1.26186 3.07065,2.30299 0.61324,0.85853 0.29583,2.12698 0.76767,3.07065 0.7933,1.5866 1.98922,1.25505 1.53532,3.07065 -1.1939,4.77562 -4.71633,7.19492 -7.67663,10.74728 -2.25273,1.4328 -2.38989,4.21008 -3.83831,6.14131 -0.86851,1.15801 -2.18196,1.92805 -3.07065,3.07065 -8.44011,-1.11137 -1.27307,3.23274 -2.30299,4.60598 -0.61018,0.81357 -3.22523,2.61214 -3.83832,3.83831 -0.61626,1.23252 -0.85165,2.64188 -1.53532,3.83832 -0.35909,0.6284 -1.02356,1.02355 -1.53533,1.53533 -0.76766,1.53532 -1.62681,3.02822 -2.30299,4.60597 -0.45328,1.05765 0.28003,2.71821 0,3.83832 -0.50796,2.03185 -1.50795,4.68812 -0.76766,6.90897 0.86808,2.60424 1.63894,2.33752 3.83831,3.07065 3.43319,1.14439 8.80994,1.48828 12.28261,0 0.66524,-0.2851 0.91471,-1.16296 1.53533,-1.53533 1.38774,-0.83265 3.15846,-0.81156 4.60598,-1.53532 2.05436,-1.02718 5.15602,-3.91086 7.67663,-3.07066 3.75525,1.25175 4.94434,8.22331 6.1413,11.51495 2.23334,6.14168 2.40879,7.60269 6.90897,13.05027 14.62679,17.70612 4.3854,6.55924 14.5856,13.05027 1.38232,0.87966 2.44888,2.20226 3.83831,3.07066 1.37238,0.85773 3.03592,1.14281 4.60598,1.53532 0.90028,0.22507 3.2623,-0.57601 3.83831,0 0.0658,0.0657 5.36746,6.89969 5.37365,6.90897 1.4353,2.15296 1.62789,5.51249 3.07065,7.67663 0.80294,1.20441 2.24055,1.8848 3.07065,3.07065 0.98437,1.40625 1.35082,3.17773 2.30299,4.60598 1.20441,1.80661 3.30321,2.86895 4.60598,4.60598 1.42563,1.90084 -4.21324,-0.57129 1.53532,2.30299 0.45775,0.22887 1.03052,-0.0841 1.53533,0 1.0407,0.17345 2.15461,1.29111 3.07065,0.76766 1.83968,-1.05124 6.71175,-12.85306 7.67663,-13.81793 0.18094,-0.18094 0.58673,0.18094 0.76767,0 0.18094,-0.18094 -0.18094,-0.58673 0,-0.76767 0.72375,-0.72376 2.06102,0.16827 3.07065,0 0.79818,-0.13303 1.49659,-0.70046 2.30299,-0.76766 6.83765,-0.56981 6.53572,0.22478 13.05027,0.76766 1.53002,0.1275 3.11649,-0.37237 4.60598,0 2.71781,0.67946 4.07983,2.9568 6.1413,4.60598 0.9059,0.72472 10.22579,-0.50692 10.74728,-0.76766 5.79049,-2.89525 2.29743,-1.65864 7.67663,-6.14131 3.22413,-2.68677 6.48762,-5.34862 9.97962,-7.67663 1.42826,-0.95217 3.14407,-1.40335 4.60598,-2.30299 4.04926,-2.49185 7.17829,-5.47013 10.74728,-8.44429 2.31112,-1.92593 13.12745,-8.44 14.5856,-9.21196 9.57215,-5.0676 2.82843,0.70693 11.51495,-5.37364 2.63228,-1.8426 3.90093,-4.63728 6.90897,-6.1413 16.83802,-8.41902 4.90693,-2.06349 16.12092,-6.14131 6.08425,-2.21245 10.77496,-7.17408 16.88859,-9.21195 2.6471,-0.88237 4.97146,-0.76767 7.67663,-0.76767 1.02355,0 3.3189,0.99299 3.07065,0 -0.5551,-2.22039 -2.12357,-4.05772 -3.07065,-6.1413 -3.55219,-7.81481 -9.71865,-16.14382 -7.67663,-25.33288 0.14861,-0.66879 2.86972,-6.10525 3.07065,-6.90897 0.18618,-0.74474 -0.15055,-1.55023 0,-2.30299 0.22443,-1.12214 1.3109,-1.94851 1.53532,-3.07065 0.15056,-0.75276 -0.18618,-1.55825 0,-2.30299 0.0878,-0.35107 0.60583,-0.44399 0.76767,-0.76766 2.49143,-4.98286 3.57571,-11.45437 6.90896,-16.12093 2.15947,-3.02325 8.64012,-10.38689 9.21196,-13.81793 0.54343,-3.26058 -0.20417,-10.38796 -1.53532,-13.05027 -0.73276,-1.4655 -2.11831,-2.50503 -3.07066,-3.83832 -1.69128,-0.38659 -0.40578,-1.57923 -0.76766,-2.30299 -0.57218,-1.14436 -1.8984,-1.85687 -2.30299,-3.07065 -0.44691,-1.34074 0.17403,-4.43195 -0.76766,-5.37364 -0.18094,-0.18094 -0.68675,0.24276 -0.76767,0 -1.34328,-4.02986 2.32888,-9.43623 4.60598,-12.28261 0.79926,-0.99907 1.39829,-2.16595 2.30299,-3.07065 0.18094,-0.18094 0.58673,0.18094 0.76767,0 0.18094,-0.18094 -0.24276,-0.68675 0,-0.76766 6.1413,-2.04711 0.34118,0.68236 3.07065,0 1.84572,-0.46143 3.57888,-1.94404 5.37364,-2.30299 4.71287,-0.94258 14.81382,5.76779 18.42392,9.97962 2.0327,2.37154 3.4439,5.22056 5.3736,7.67663 1.3415,1.70731 3.4016,2.79936 4.606,4.60598 0.4489,0.67328 0.3188,1.6297 0.7677,2.30298 2.5265,3.78975 6.5892,4.54203 10.7473,5.37365 5.6048,1.12095 14.0176,2.68161 19.1915,-0.76767 6.9214,-4.61425 10.3606,-18.80484 16.121,-24.56521 0.8205,-0.82056 5.09,0.42051 6.1413,0 0.6144,-0.24578 4.1239,-3.51694 4.6059,-3.83832 1.7539,-1.16923 6.0645,-6.1413 7.6767,-6.1413 0.2559,0 -0.086,0.52668 0,0.76766 1.1987,3.35646 2.2444,6.79179 3.8383,9.97962 5.2209,10.44185 4.3533,7.12796 13.0503,13.81793 0.8605,0.66193 1.4344,1.65161 2.3029,2.30299 0.7918,0.59382 6.2863,-2.02492 7.6767,-2.30299 3.1488,-0.62976 7.7749,-0.81681 10.7473,-2.30299 2.2854,-1.14272 4.718,-3.29142 6.9089,-4.60597 1.472,-0.88316 2.9775,-1.76017 4.606,-2.30299 0.4855,-0.16184 1.1735,0.36188 1.5353,0 0.4046,-0.4046 0.3631,-1.13074 0.7677,-1.53533 1.6792,-1.67924 3.8264,-2.67195 5.3736,-4.60598 3.5384,-4.423 7.1445,-8.64683 10.7473,-13.05027 4.0692,-4.97341 9.6781,-12.55715 9.9796,-19.19158 0.1865,-4.10152 -1.5327,-13.04243 -3.0706,-17.65625 -0.678,-2.03402 -1.8699,-3.20799 -2.303,-5.37364 -0.6898,-3.44899 2.4257,-6.75463 3.0706,-9.97962 0.2864,-1.43199 0.1255,-3.32161 0.7677,-4.60597 0.1144,-0.22888 0.5118,0 0.7677,0 0.2559,-1.02356 0.2958,-2.12699 0.7676,-3.07066 0.2289,-0.45774 1.5354,0.51178 1.5354,0 0,-0.36188 -0.6533,-0.42435 -0.7677,-0.76766 -0.3237,-0.97103 -0.7238,-2.34689 0,-3.07065 0.2559,-0.25589 2.0471,-0.51178 2.303,-0.76767 0.3619,-0.36188 -0.1618,-1.04981 0,-1.53532 0.3619,-1.08564 1.3109,-1.94851 1.5353,-3.07065 0.3203,-1.60121 0.5344,-9.91167 0,-11.51495 -0.8908,-2.67231 -7.2591,-5.72376 -9.2119,-7.67663 -0.6524,-0.65239 -0.959,-1.58255 -1.5354,-2.30299 -1.1303,-1.4129 -2.6362,-2.48595 -3.8383,-3.83831 -2.4285,-2.7321 -4.5321,-5.72792 -6.9089,-8.4443 -1.1915,-1.36171 -2.8347,-2.3328 -3.8384,-3.83831 -1.2106,-1.81593 -2.1922,-7.78438 -3.8383,-10.74729 -2.5482,-4.58688 -5.3294,-9.12353 -7.6766,-13.81793 -0.8715,-1.74304 -1.8304,-3.48304 -2.303,-5.37364 -0.1241,-0.4965 0.2633,-1.09648 0,-1.53533 -0.5586,-0.93093 -1.7644,-1.36039 -2.303,-2.30299 -0.5234,-0.91604 -0.2958,-2.12698 -0.7677,-3.07065 -0.3015,-0.60318 -1.4923,-0.22723 -2.3029,-0.76766 -0.4761,-0.31739 -0.4244,-1.07758 -0.7677,-1.53533 -2.1116,-2.81549 -1.6816,-0.29258 -3.8383,-4.60598 -0.7238,-1.44752 -0.5643,-3.31127 -1.5353,-4.60597 -0.6867,-0.9155 -2.2018,-0.79059 -3.0707,-1.53533 -0.9714,-0.83265 -1.3201,-2.25158 -2.303,-3.07065 -2.3317,-1.94314 -6.6651,-1.80081 -9.2119,-3.83832 -2.4234,-1.9387 -3.3044,-4.83973 -5.3737,-6.90897 -0.4046,-0.40459 -1.0776,-0.42435 -1.5353,-0.76766 -2.0646,-1.54842 -1.7648,-2.53247 -3.8383,-4.60598 -2.1398,-2.13976 -5.4899,-4.0707 -6.909,-6.90896 -1.0923,-2.18452 0.081,-3.41418 -2.303,-4.60598 -3.0121,-1.50604 -6.8858,-1.74475 -9.9796,-3.07065 -0.848,-0.36344 -1.4391,-1.21138 -2.303,-1.53533 -1.2217,-0.45814 -2.639,-0.25369 -3.8383,-0.76766 -0.6652,-0.28511 -0.9147,-1.16296 -1.5353,-1.53533 -0.6939,-0.41632 -1.6297,-0.31881 -2.303,-0.76766 -0.2129,-0.14194 0.1809,-0.58673 0,-0.76767 -0.875,-0.87493 -7.3014,-1.92778 -8.4443,-3.07065 -0.181,-0.18094 0.2129,-0.62572 0,-0.76766 -1.3466,-0.89771 -3.2594,-0.63761 -4.606,-1.53533 -0.2129,-0.14194 0.2289,-0.65322 0,-0.76766 -0.4577,-0.22887 -1.0388,0.12412 -1.5353,0 -1.5826,-0.39565 -3.0878,-1.6957 -4.606,-2.30299 -3.2785,-1.31141 -7.0119,-1.85983 -9.9796,-3.83831 -0.9033,-0.60221 -1.4345,-1.65161 -2.303,-2.30299 -1.7467,-1.31003 -4.2113,-2.87331 -6.1413,-3.83832 -0.6866,-0.34331 -1.5747,0.24276 -2.303,0 -13.3784,-4.45947 17.6601,2.89438 -11.5149,-3.83831 -0.748,-0.17262 -1.7602,0.54282 -2.303,0 -0.181,-0.18094 0.1809,-0.58673 0,-0.76767 -0.21,-0.20993 -2.717,-1.44691 -3.0707,-1.53532 -5.5392,-1.38481 -12.11702,1.3848 -17.65624,0 -2.40886,-0.60222 -6.51378,-2.69169 -9.21195,-1.53533 -2.40443,1.03047 -7.3507,3.51238 -9.21196,5.37364 -1.30478,1.30478 -1.76588,3.3012 -3.07065,4.60598 -0.4046,0.40459 -1.06972,0.43509 -1.53533,0.76766 -9.0564,6.46886 1.58027,0.4968 -8.44429,3.83832 -2.25432,0.75144 -2.16119,1.81281 -3.83832,3.07065 -1.79324,1.34493 -4.32173,1.77096 -6.1413,3.07065 -0.88342,0.63102 -1.43448,1.65161 -2.30299,2.30299 -1.02655,0.76992 -8.87655,5.15004 -9.21196,5.37364 -4.39335,2.92891 2.35153,0.28765 -4.60597,3.07066 -3.51344,1.40537 -8.24703,-1.31747 -11.51495,-1.53533 -5.03886,-0.33592 -24.08437,-1.32925 -29.93886,-3.83832 -1.69604,-0.72687 -2.93058,-2.29739 -4.60598,-3.07065 -5.1053,-2.35629 -30.48077,-7.95088 -33.00951,-8.44429 -5.32772,-1.03956 -10.7285,-1.68079 -16.12092,-2.30299 -1.77941,-0.20532 -3.71054,-0.66524 -5.37364,0 -1.02777,0.41111 -4.80959,3.52495 -5.37364,3.83831 -5.29469,2.9415 -6.14816,2.3167 -9.21196,8.4443 -1.03845,2.07689 0.53328,6.44021 1.53532,8.44429 0.16184,0.32368 0.6967,0.41281 0.76767,0.76766 0.20073,1.00368 -0.12696,2.05501 0,3.07066 0.13086,1.0469 0.61845,2.0262 0.76766,3.07065 1.02917,7.20418 -5.2088,11.26171 -10.74728,13.81793 -3.20588,1.47964 -4.82582,2.02465 -8.4443,2.30299 -8.27367,0.63644 -20.50673,0.4786 -28.40353,0 -3.86519,-0.23425 -7.65856,-1.18474 -11.51494,-1.53532 -4.56808,-0.41528 -9.24676,0.38093 -13.81794,0 -5.82824,-0.48569 -10.63611,-2.23614 -15.35326,3.07065 -3.22376,3.62673 -5.99696,21.68746 -3.83831,26.86821 3.34042,8.017 7.65993,17.64623 15.35326,22.26222 3.70773,2.22464 8.11036,3.56292 12.28261,4.60598 1.51003,0.37751 3.37734,-0.18794 4.60597,0.76766 3.57349,2.77938 6.27087,6.61583 9.97962,9.21196 6.94358,4.8605 1.15639,-3.44959 9.97962,5.37364 5.28196,5.28196 6.16339,14.60523 13.05027,20.72691 3.82506,3.40005 7.70516,6.92322 12.28261,9.21195 0.68662,0.34331 1.57472,-0.24275 2.30299,0 0.26308,0.0877 2.89523,2.12756 3.07065,2.30299 0.36188,0.36188 -0.16183,1.04981 0,1.53533 0.51034,1.53099 0.95568,3.06023 1.53533,4.60598 0.48385,1.29025 1.02355,2.55887 1.53533,3.83831 0.76766,2.55888 1.41384,5.15739 2.30299,7.67663 1.90152,5.38764 4.53963,6.77627 6.90896,11.51495 0.11444,0.22887 -0.18094,0.58672 0,0.76766 0.18094,0.18094 0.65323,-0.22887 0.76767,0 0.45774,0.91549 0,2.0471 0,3.07065 0,5.0688 -8.82944,-2.02976 -9.21196,-2.30299 z"
       id="path22" /><path
       style="fill:#9aa3b8;fill-opacity:1;stroke-width:1.19277"
       d="m 538.13179,478.41186 c 0.66074,0.49192 18.25696,-7.12346 18.42392,-5.46075 0.0644,0.64166 -1.47559,34.10946 -0.76767,34.94874 4.59217,5.44436 10.53659,11.02002 16.12093,14.19793 2.45022,1.39436 5.40585,2.52254 7.67663,4.36859 2.23192,1.81448 3.98782,4.5104 6.1413,6.55289 0.67329,0.63858 1.73081,0.2781 2.30299,1.09214 0.36188,0.51485 -0.16184,1.49358 0,2.1843 0.11444,0.48843 0.51178,0.72809 0.76766,1.09215 0.51178,1.82024 1.09957,3.60087 1.53533,5.46074 0.57343,2.44745 0.49605,13.72745 0,14.19793 -1.14656,1.08747 -3.22206,0.43079 -3.83831,2.18429 -0.34331,0.97685 0.24275,2.24034 0,3.27644 -0.61127,2.60892 -3.47438,9.59875 -4.60598,12.01364 -0.40147,0.85674 -1.17624,1.29027 -1.53533,2.18429 -1.94224,4.83563 -3.56204,13.12078 -4.60598,18.56651 -1.32768,6.92591 -2.66148,20.09392 -1.53532,27.30371 0.9286,5.94501 6.92441,19.59275 5.37364,26.21155 -0.55964,2.38857 -4.41552,2.69226 -5.37364,3.27644 -0.84802,0.51706 -1.45497,1.66724 -2.30299,2.1843 -2.16382,1.31934 -3.51728,0.2118 -5.37364,1.09215 -2.35352,1.11611 -4.3594,2.75826 -6.90897,3.27644 -0.75995,0.15445 -1.55023,-0.21418 -2.30299,0 -1.12214,0.3193 -1.96046,1.78943 -3.07065,2.1843 -4.10582,1.46033 -12.30414,-0.37426 -16.12093,-2.1843 -1.02992,-0.48842 -1.53532,-2.1843 -2.30299,-3.27644 -3.96243,-5.63733 -0.49239,-17.70056 -1.53532,-25.11941 -0.11222,-0.79822 -0.65545,-1.38605 -0.76766,-2.1843 -0.40147,-2.85583 0,-5.82479 0,-8.73718 0,-12.5082 0.91797,-25.8182 0,-38.22518 -0.27318,-3.69219 -1.12834,-7.25432 -1.53533,-10.92148 -0.62593,-5.63988 -0.80928,-12.88534 -1.53533,-18.56652 -0.14475,-1.13265 -0.51177,-2.18429 -0.76766,-3.27644 -0.25589,-1.4562 -0.59421,-2.88799 -0.76766,-4.36859 -0.47229,-4.03154 -0.52757,-7.91458 -0.76767,-12.01363 -0.38907,-6.64247 -1.53532,-12.96573 -1.53532,-19.65867 0,-1.09214 0.54282,-2.50417 0,-3.27644 -0.34119,-0.48539 -1.45003,0.84944 -0.76766,-1.09215 1.18269,-3.36522 3.16893,-5.03119 5.37364,-7.64503 7.0599,-8.37006 8.27607,-8.22817 6.90896,-21.84296 z"
       id="path23" /></g><!-- W network graph --><g
     fill="none"
     stroke="#7ec5e8"
     stroke-width="30"
     stroke-linecap="round"
     stroke-linejoin="round"
     id="g7"
     transform="matrix(0.94040445,0,0,1.0561406,-448.62423,-277.28273)"><path
       d="m 588.14386,394.13289 c 9.64879,180.6313 57.67668,290.63766 107.79384,396.79934"
       id="path4"
       style="stroke-width:28.202"
       sodipodi:nodetypes="cc" /><path
       d="M 695,790 875,545"
       id="path5" /><path
       d="m 875,545 165,240"
       id="path6" /><path
       d="m 1053.5388,775.63308 c 71.9459,-76.06102 132.9716,-158.43344 153.1253,-266.02504"
       id="path7"
       style="display:inline;stroke-width:31.4599"
       sodipodi:nodetypes="cc"
       inkscape:label="path7" /></g><path
     style="fill:url(#radialGradient32);fill-opacity:1"
     d="m 190.57339,517.00681 12.28261,1.53533 C 146.52832,415.67886 116.09265,289.51276 111.5041,140.08426 l -8.4443,9.21196 c 3.17828,136.18553 30.02972,259.97084 87.51359,367.71059 z"
     id="path29"
     sodipodi:nodetypes="ccccc" /><path
     style="fill:url(#radialGradient32-7);fill-opacity:1;stroke-width:1.05128"
     d="m 190.00897,564.77702 11.38566,13.36787 161.71554,-247.73754 -14.72033,-5.0415 z"
     id="path29-6" /><path
     style="fill:url(#radialGradient32-7-6);fill-opacity:1;stroke-width:1.05128"
     d="m 536.86238,581.79256 16.955,-4.56749 -154.66814,-252.19747 -10.85747,11.14537 z"
     id="path29-6-8" /><path
     style="fill:url(#radialGradient32-7-6-9);fill-opacity:1;stroke-width:1.05128"
     d="m 550.08438,510.55185 12.8787,11.93625 C 627.12196,449.30687 679.1237,366.65614 694.42398,257.45261 l -15.211,-3.27553 c -15.98666,114.106 -69.73987,188.2239 -129.1286,256.37477 z"
     id="path29-6-8-3"
     sodipodi:nodetypes="ccccc" /><circle
     cx="357"
     cy="357"
     r="340"
     fill="none"
     stroke="#9aa3b8"
     stroke-width="34"
     id="circle3"
     style="display:inline;stroke:#435c7c;stroke-opacity:1;fill:none;fill-opacity:1"
     inkscape:label="circle3" /><!-- nodes (red dots with white halo) --><g
     id="g12"
     transform="translate(-498.02037,-233.76765)"><circle
       cx="695"
       cy="790"
       r="42"
       fill="#ffffff"
       id="circle7" /><circle
       cx="695"
       cy="790"
       r="26"
       fill="#b03a30"
       id="circle8" /><circle
       cx="875"
       cy="545"
       r="42"
       fill="#ffffff"
       id="circle9" /><circle
       fill="#b03a30"
       id="circle10"
       r="26"
       cy="545"
       cx="875" /><circle
       cx="1040"
       cy="785"
       r="42"
       fill="#ffffff"
       id="circle11" /><circle
       cx="1040"
       cy="785"
       r="26"
       fill="#b03a30"
       id="circle12"
       style="fill:#b03a30;fill-opacity:1" /></g><path
     style="fill:none"
     d="m 75.423929,65.620939 56.039411,13.05028 3.83831,20.7269 4.60598,20.726901 c 0,0 -49.898101,44.52446 -41.453811,45.29212 8.444301,0.76766 -39.15081,-52.20109 -39.15081,-52.20109 z"
     id="path12" /><path
     style="fill:none"
     d="m 287.29893,37.985069 c 0,0 -6.90896,43.7568 25.33288,56.03941"
     id="path13" /><path
     style="display:none;fill:#9aa3b8;fill-opacity:1;stroke-width:1.00413"
     d="m 284.71388,84.306459 331.1447,77.272361 -47.9588,-74.930771 -79.17023,-41.36803 -68.51272,-21.85481 -123.32291,-1.56106 -45.67515,20.29375 z"
     id="path15" /><path
     style="fill:#f9f9f9;fill-opacity:1"
     d="M 19.620809,64.465239 69.560219,3.6694185"
     id="path34" /></svg>
